<svg width="688" height="102" viewBox="0 0 688 102" fill="none" xmlns="http://www.w3.org/2000/svg">
<path d="M29.1733 15.5864C29.9733 15.5864 31.1733 15.1864 32.3733 15.5864C40.3733 15.5864 45.5733 20.3864 45.9733 26.3864H66.3601C65.1601 9.59978 51.9733 -0.000244141 33.1733 -0.000244141C31.5733 -0.000244141 30.3733 -0.000244141 29.1733 -0.000244141V15.5864Z" fill="#ED1D24"/>
<path d="M67.5599 67.5598C67.5599 34.7731 19.9865 44.7731 19.5865 26.3865H0.386458V26.7865C-0.000208348 60.7731 47.9599 48.3731 47.9599 68.7598C47.9599 75.1598 42.7732 79.9598 33.9732 79.9598C25.5732 79.9598 20.3865 75.1598 19.9865 67.5598H0C0.386667 85.1598 15.1865 95.1465 34.3732 95.1465C55.5598 95.1465 67.5599 81.9598 67.5599 67.5598Z" fill="black"/>
<path d="M469.76 23.5867L462.173 2.00002H440.573L407 95.1467H426.587C436.973 65.1734 438.573 59.9734 451.373 23.5867H469.76Z" fill="black"/>
<path d="M127 54.3732V93.1466H159.387C186.573 93.1466 204.96 77.9599 208.16 54.3732H188.973C186.173 68.7599 175.773 77.1599 158.987 77.1599H145.787V54.3732H127Z" fill="#52B0E7"/>
<path d="M159.387 -8.06657e-05H127V38.3733H145.787V15.9866H158.987C175.373 15.9866 185.773 23.9866 188.573 38.3733H208.16C204.56 14.7866 186.173 -8.06657e-05 159.387 -8.06657e-05Z" fill="black"/>
<path d="M606 62.3732V101.147H638.387C665.573 101.147 683.96 85.9599 687.16 62.3732H667.973C665.173 76.7599 654.773 85.1599 637.987 85.1599H624.787V62.3732H606Z" fill="#52B0E7"/>
<path d="M638.387 7.99992H606V46.3733H624.787V23.9866H637.987C654.373 23.9866 664.773 31.9866 667.573 46.3733H687.16C683.56 22.7866 665.173 7.99992 638.387 7.99992Z" fill="black"/>
<path d="M229 38.3732V93.1466H282.973V77.9599H247.787V53.1732H278.973V38.3732H229Z" fill="black"/>
<path d="M282.973 -7.39098e-05H229V15.1866H282.973V-7.39098e-05Z" fill="#7E329C"/>
<path d="M88 93.1467H106.787V2.02552e-05H88V93.1467Z" fill="black"/>
<path d="M516 41.5734V95.1467H534.787V75.16L516 41.5734Z" fill="black"/>
<path d="M565.173 31.1867C565.173 39.5734 560.773 44.7734 550.373 44.7734H535.987L563.973 95.1467H585.56L563.173 57.5734C578.36 53.5734 584.36 41.9734 584.36 30.7867C584.36 15.1867 573.173 2.00002 550.787 2.00002H516V9.18671L534.787 42.7734V17.5867H550.373C560.773 17.5867 565.173 22.7867 565.173 31.1867Z" fill="#FBC907"/>
<path d="M395.173 43.5733L417.96 -7.11362e-06H397.173L385.987 23.9867L395.173 43.5733Z" fill="#52B0E7"/>
<path d="M367.587 60.76V93.1467H386.387V62.36L364.387 15.5867L357.2 2.02552e-05H336L367.587 60.76Z" fill="black"/>
<path d="M475.76 95.1467H495.746L478.16 46.7734H459.373C465.36 64.36 468.56 74.36 475.76 95.1467Z" fill="#FBC907"/>
</svg>
